HIERARCHY
ROOT Hips
{
	OFFSET	0.00	0.00	0.00
	CHANNELS 6 Xposition Yposition Zposition Zrotation Xrotation Yrotation
	JOINT Spine
	{
		OFFSET	 0.00	0.01	 0.00
		CHANNELS 3 Zrotation Xrotation Yrotation
		JOINT Spine1
		{
			OFFSET	 0.00	 2.45913012437421	 0.00
			CHANNELS 3 Zrotation Xrotation Yrotation
            JOINT Neck
            {
                OFFSET	 0.00	 2.48462964506057	 0.00
                CHANNELS 3 Zrotation Xrotation Yrotation
                JOINT Head
                {
                    OFFSET	 0.00	 0.927524780924562	 0.00
                    CHANNELS 3 Zrotation Xrotation Yrotation
                    End Site 
                    {
                        OFFSET	 0.00	 1.14999962169752	 0.00
                    }
                }
            }
			JOINT LeftShoulder
			{
				OFFSET	 0.00	 2.48462964506057	 0.00
				CHANNELS 3 Zrotation Xrotation Yrotation
				JOINT LeftUpArm
				{
					OFFSET	 0.00	 1.24881979654096	 0.00
					CHANNELS 3 Zrotation Xrotation Yrotation
					JOINT LeftForeArm
					{
						OFFSET	 0.00	2.59758046908119	 0.00
						CHANNELS 3 Zrotation Xrotation Yrotation
						JOINT LeftHand
						{
							OFFSET	 0.00	2.45542024364365	 0.00
							CHANNELS 3 Zrotation Xrotation Yrotation
							JOINT LeftHandThumb 
							{
								OFFSET	 0.00	0.00	 0.00
								CHANNELS 3 Zrotation Xrotation Yrotation
								End Site
								{
									OFFSET	 0.00	0.00	1.00000003353624
								}
							}
							JOINT L_Wrist_End 
							{
								OFFSET	 0.00	0.99999967115358	 0.00
								CHANNELS 3 Zrotation Xrotation Yrotation
								End Site 
								{
									OFFSET	 0.00	 0.00	 0.00
								}
							}
						}
					}
				}
			}
			JOINT RightShoulder
			{
				OFFSET	 0.00	 2.48462964506057	 0.00
				CHANNELS 3 Zrotation Xrotation Yrotation
				JOINT RightUpArm
				{
					OFFSET	 0.00	 1.24881979654096	 0.00
					CHANNELS 3 Zrotation Xrotation Yrotation
					JOINT RightForeArm
					{
						OFFSET	 0.00	2.59758046908119	 0.00
						CHANNELS 3 Zrotation Xrotation Yrotation
						JOINT RightHand
						{
							OFFSET	 0.00	2.45542024364365	 0.00
							CHANNELS 3 Zrotation Xrotation Yrotation
							JOINT RightHandThumb 
							{
								OFFSET	 0.00	0.00	 0.00
								CHANNELS 3 Zrotation Xrotation Yrotation
								End Site
								{
									OFFSET	 0.00	0.00	1.00000003353624
								}
							}
							JOINT R_Wrist_End 
							{
								OFFSET	 0.00	0.99999967115358	 0.00
								CHANNELS 3 Zrotation Xrotation Yrotation
								End Site 
								{
									OFFSET	 0.00	 0.00	 0.00
								}
							}
						}
					}
				}
			}
		}
	}
	JOINT LeftUpLeg
	{
		OFFSET	 1.2719394002717	 0.00	 0.00
		CHANNELS 3 Zrotation Xrotation Yrotation
		JOINT LeftLowLeg
		{
			OFFSET	 0.00	-4.3429100912261	 0.00
			CHANNELS 3 Zrotation Xrotation Yrotation
			JOINT LeftFoot
			{
				OFFSET	 0.00	-4.48767017425826	 0.00
				CHANNELS 3 Zrotation Xrotation Yrotation
				JOINT LeftToeBase
                {
                    OFFSET	 0.00	0.00	 1.51507020887566
                    CHANNELS 3 Zrotation Xrotation Yrotation
                    End Site 
                    {
                        OFFSET	 0.00	0.00	 0.75000010571191
                    }
                }
			}
		}
	}
	JOINT RightUpLeg
	{
		OFFSET	 -1.2719393604653	 0.00	 0.00
		CHANNELS 3 Zrotation Xrotation Yrotation
		JOINT RightLowLeg
		{
			OFFSET	 0.00	-4.3429100912261	 0.00
			CHANNELS 3 Zrotation Xrotation Yrotation
			JOINT RightFoot
			{
				OFFSET	 0.00	-4.48767017425826	 0.00
				CHANNELS 3 Zrotation Xrotation Yrotation
				JOINT RightToeBase
                {
                    OFFSET	 0.00	0.00	 1.51507020887566
                    CHANNELS 3 Zrotation Xrotation Yrotation
                    End Site 
                    {
                        OFFSET	 0.00	0.00	 0.749999965609858
                    }
                }   
			}
		}
	}
}
MOTION 
Frames:	8 
Frame Time: 0.02 
 -0.9278800201416015 -2.5024099731445313 10.474599609375 -52.2739 84.8486 55.4212 4.59247 -21.7676 -3.77571 -8.0594 33.1969 5.97093 0.845989 31.3158 3.33337 20.2065 -66.7428 17.6777 -117.822296 3.71368 -10.7152 -33.9211 -2.47666 37.3209 0.0 30.7125 0.0 10.0468 -6.25035 -0.090568 0.0 0.0 0.0 0.0 0.0 0.0 121.9549 0.666225 6.25575 40.9076 4.34236 -26.3477 0.0 27.7339 0.0 -4.68312 -0.450984 8.12043 0.0 0.0 0.0 0.0 0.0 0.0 6.85316 10.4652 16.1817 0.0 1.04382 0.0 -8.04634 10.1729 4.10404 0.0 -11.9058895 0.0 5.83559 8.8098 9.66089 0.0 5.20091 0.0 19.1133 8.29965 -25.3582 0.0 -13.66024 0.0 
  -0.9466950225830079 -2.507149963378906 10.476800537109375 -51.878 84.8669 55.2115 4.81231 -21.797 -3.56041 -8.21375 33.1621 5.93274 1.31045 31.4733 2.87672 20.321 -66.7414 17.9148 -117.855896 3.63309 -10.5772 -34.0667 -2.39388 36.4948 0.0 30.2546 0.0 10.2582 -6.33387 -0.791853 0.0 0.0 0.0 0.0 0.0 0.0 122.0459 0.603333 6.33688 40.9693 4.35107 -26.3169 0.0 27.6746 0.0 -4.65144 -0.475806 8.37763 0.0 0.0 0.0 0.0 0.0 0.0 6.94122 10.4076 16.1228 0.0 1.0942 0.0 -8.04513 10.30356 4.12816 0.0 -11.92181 0.0 5.94508 8.80363 9.55119 0.0 5.29247 0.0 19.1224 8.294439 -25.448 0.0 -13.47831 0.0 
  -0.9623100280761718 -2.5035000610351563 10.48010009765625 -52.6123 84.9083 56.044 5.21134 -21.8112 -3.16815 -8.54612 33.1231 5.83714 1.84761 31.5779 2.42809 20.6992 -66.76 18.38 -117.8385 3.55901 -10.781 -34.1719 -2.43853 35.8535 0.0 29.7988 0.0 10.2716 -6.47907 -0.941737 0.0 0.0 0.0 0.0 0.0 0.0 122.260895 0.624552 6.30035 40.9511 4.42228 -26.1438 0.0 27.6093 0.0 -4.66892 -0.445533 8.44292 0.0 0.0 0.0 0.0 0.0 0.0 7.04528 10.1653 16.1932 0.0 1.27851 0.0 -7.96005 10.38912 4.13712 0.0 -11.95493 0.0 6.05122 8.63025 9.31172 0.0 5.40123 0.0 19.0105 8.460791 -25.3876 0.0 -13.44405 0.0 
  -0.9750800323486328 -2.498130035400391 10.483299560546875 -52.9153 84.9768 56.5235 5.79305 -21.6953 -2.54742 -9.28004 32.9596 5.57875 2.73694 31.6701 1.77938 21.4503 -66.7014 19.327 -117.5341 3.42563 -10.9691 -34.2929 -2.44394 35.3503 0.0 29.2964 0.0 10.099 -6.61578 -1.27163 0.0 0.0 0.0 0.0 0.0 0.0 122.7383 0.618887 6.21924 40.8954 4.48279 -26.0861 0.0 27.6207 0.0 -4.60238 -0.66367 8.37745 0.0 0.0 0.0 0.0 0.0 0.0 7.10894 9.88532 16.2722 0.0 1.51476 0.0 -7.85681 10.48775 4.06601 0.0 -12.03291 0.0 6.1142 8.45978 9.24266 0.0 5.54333 0.0 19.0807 8.46954 -25.4855 0.0 -13.48664 0.0 
  -0.9837069702148438 -2.487409973144531 10.485799560546875 -53.2647 85.0479 57.0242 6.94002 -21.3197 -1.2642 -10.8641 32.4404 4.99458 4.40185 31.9895 0.61906 22.9139 -66.5613 21.2476 -116.7001 3.16098 -10.951 -34.4031 -2.33969 34.8393 0.0 28.7898 0.0 9.71843 -6.89786 -1.45968 0.0 0.0 0.0 0.0 0.0 0.0 123.774704 0.672141 5.83671 40.7316 4.54971 -26.0171 0.0 27.5835 0.0 -4.54666 -0.418257 8.21976 0.0 0.0 0.0 0.0 0.0 0.0 7.13656 9.58303 16.3614 0.0 1.73908 0.0 -7.73302 10.56868 4.03091 0.0 -12.09681 0.0 6.14833 8.23557 9.14591 0.0 5.72798 0.0 19.146 8.4610195 -25.5233 0.0 -13.51887 0.0 
  -0.991937026977539 -2.4714199829101564 10.49030029296875 -53.739 85.1244 57.6377 7.70315 -21.1986 -0.406558 -11.9307 32.5222 4.78388 5.71113 31.8905 -0.393108 23.7497 -66.3118 22.3378 -116.063995 3.35795 -11.0898 -34.5847 -2.32158 34.3459 0.0 28.2809 0.0 9.15114 -7.11569 -1.61374 0.0 0.0 0.0 0.0 0.0 0.0 124.3332 0.78976 5.77061 40.6696 4.56213 -25.8371 0.0 27.6614 0.0 -4.47618 -0.470323 8.35946 0.0 0.0 0.0 0.0 0.0 0.0 7.16943 9.2264 16.4364 0.0 1.99593 0.0 -7.60906 10.69598 3.98631 0.0 -12.18692 0.0 6.17824 7.96208 9.03353 0.0 5.91651 0.0 19.1756 8.53646 -25.5722 0.0 -13.5979805 0.0 
  -0.9990850067138672 -2.449510040283203 10.495400390625 -54.93 85.2557 59.0273 7.92229 -21.3726 -0.247221 -12.2613 33.2893 4.97079 6.32703 31.0096 -1.03531 23.9214 -66.0263 22.4356 -115.8587 3.69348 -11.6368 -34.7973 -2.12174 34.1826 0.0 27.8263 0.0 8.40948 -7.40603 -1.87269 0.0 0.0 0.0 0.0 0.0 0.0 124.2698 0.845612 6.20379 40.7334 4.73362 -25.9881 0.0 27.7343 0.0 -4.43893 -0.421956 8.06584 0.0 0.0 0.0 0.0 0.0 0.0 7.19675 8.71238 16.2969 0.0 2.32016 0.0 -7.49885 10.81481 4.05961 0.0 -12.26074 0.0 6.20201 7.55942 9.03016 0.0 6.1553 0.0 19.2292 8.55425 -25.7581 0.0 -13.6465 0.0 
  -1.005009994506836 -2.423300018310547 10.497900390625 -56.7114 85.4096 61.0086 8.16509 -21.2455 -0.086506 -12.5734 33.595 4.86908 6.79808 30.4103 -1.47204 24.4516 -66.0069 22.8139 -115.8059 3.78507 -11.9663 -34.7764 -1.76667 34.1283 0.0 27.3738 0.0 7.73359 -7.62974 -2.08498 0.0 0.0 0.0 0.0 0.0 0.0 124.3828 0.891832 6.28422 40.6173 5.08625 -26.1753 0.0 27.7773 0.0 -4.37053 -0.423598 8.09113 0.0 0.0 0.0 0.0 0.0 0.0 7.22003 8.10742 16.0456 0.0 2.69391 0.0 -7.42273 10.82957 4.21279 0.0 -12.30969 0.0 6.21538 7.08742 8.87551 0.0 6.39905 0.0 19.2098 8.53964 -25.8195 0.0 -13.68304 0.0 
